<mxfile host="app.diagrams.net" modified="2022-09-23T15:39:05.844Z" agent="5.0 (Windows NT 10.0; Win64; x64) AppleWebKit/537.36 (KHTML, like Gecko) Chrome/105.0.0.0 Safari/537.36 Edg/105.0.1343.50" etag="gHGaPL7Ip9BRrlUlfAdw" version="20.3.6" type="github">
  <diagram id="RFqJEcN42SYucBGwB-Fo" name="Página-1">
    <mxGraphModel dx="781" dy="428" grid="1" gridSize="10" guides="1" tooltips="1" connect="1" arrows="1" fold="1" page="1" pageScale="1" pageWidth="827" pageHeight="1169" math="0" shadow="0">
      <root>
        <mxCell id="0" />
        <mxCell id="1" parent="0" />
        <mxCell id="cYHLTU1TbLBHb6qZ04rK-22" value="salario" style="whiteSpace=wrap;html=1;rounded=1;arcSize=50;align=center;verticalAlign=middle;strokeWidth=1;autosize=1;spacing=4;treeFolding=1;treeMoving=1;newEdgeStyle={&quot;edgeStyle&quot;:&quot;entityRelationEdgeStyle&quot;,&quot;startArrow&quot;:&quot;none&quot;,&quot;endArrow&quot;:&quot;none&quot;,&quot;segment&quot;:10,&quot;curved&quot;:1};" parent="1" vertex="1">
          <mxGeometry x="190" y="404" width="80" height="30" as="geometry" />
        </mxCell>
        <mxCell id="cYHLTU1TbLBHb6qZ04rK-47" value="" style="group" parent="1" vertex="1" connectable="0">
          <mxGeometry x="130" y="160" width="560" height="244" as="geometry" />
        </mxCell>
        <mxCell id="cYHLTU1TbLBHb6qZ04rK-1" value="pessoas" style="rounded=0;whiteSpace=wrap;html=1;" parent="cYHLTU1TbLBHb6qZ04rK-47" vertex="1">
          <mxGeometry y="10" width="120" height="60" as="geometry" />
        </mxCell>
        <mxCell id="cYHLTU1TbLBHb6qZ04rK-2" value="funções" style="rounded=0;whiteSpace=wrap;html=1;" parent="cYHLTU1TbLBHb6qZ04rK-47" vertex="1">
          <mxGeometry x="440" y="10" width="120" height="60" as="geometry" />
        </mxCell>
        <mxCell id="cYHLTU1TbLBHb6qZ04rK-3" value="tem" style="rhombus;whiteSpace=wrap;html=1;" parent="cYHLTU1TbLBHb6qZ04rK-47" vertex="1">
          <mxGeometry x="230" width="80" height="80" as="geometry" />
        </mxCell>
        <mxCell id="cYHLTU1TbLBHb6qZ04rK-5" value="(1,N)" style="text;html=1;align=center;verticalAlign=middle;resizable=0;points=[];autosize=1;strokeColor=none;fillColor=none;" parent="cYHLTU1TbLBHb6qZ04rK-47" vertex="1">
          <mxGeometry x="125" y="15" width="50" height="30" as="geometry" />
        </mxCell>
        <mxCell id="cYHLTU1TbLBHb6qZ04rK-6" value="(1,N)" style="text;html=1;align=center;verticalAlign=middle;resizable=0;points=[];autosize=1;strokeColor=none;fillColor=none;" parent="cYHLTU1TbLBHb6qZ04rK-47" vertex="1">
          <mxGeometry x="365" y="15" width="50" height="30" as="geometry" />
        </mxCell>
        <mxCell id="cYHLTU1TbLBHb6qZ04rK-7" value="" style="endArrow=none;html=1;rounded=0;" parent="cYHLTU1TbLBHb6qZ04rK-47" edge="1">
          <mxGeometry relative="1" as="geometry">
            <mxPoint x="120" y="40" as="sourcePoint" />
            <mxPoint x="230" y="40" as="targetPoint" />
            <Array as="points" />
          </mxGeometry>
        </mxCell>
        <mxCell id="cYHLTU1TbLBHb6qZ04rK-8" value="" style="endArrow=none;html=1;rounded=0;exitX=1;exitY=0.5;exitDx=0;exitDy=0;entryX=0;entryY=0.5;entryDx=0;entryDy=0;" parent="cYHLTU1TbLBHb6qZ04rK-47" source="cYHLTU1TbLBHb6qZ04rK-3" target="cYHLTU1TbLBHb6qZ04rK-2" edge="1">
          <mxGeometry relative="1" as="geometry">
            <mxPoint x="160" y="70" as="sourcePoint" />
            <mxPoint x="320" y="70" as="targetPoint" />
          </mxGeometry>
        </mxCell>
        <mxCell id="cYHLTU1TbLBHb6qZ04rK-11" value="id" style="whiteSpace=wrap;html=1;rounded=1;arcSize=50;align=center;verticalAlign=middle;strokeWidth=1;autosize=1;spacing=4;treeFolding=1;treeMoving=1;newEdgeStyle={&quot;edgeStyle&quot;:&quot;entityRelationEdgeStyle&quot;,&quot;startArrow&quot;:&quot;none&quot;,&quot;endArrow&quot;:&quot;none&quot;,&quot;segment&quot;:10,&quot;curved&quot;:1};" parent="cYHLTU1TbLBHb6qZ04rK-47" vertex="1" collapsed="1">
          <mxGeometry x="110" y="94" width="41" height="30" as="geometry" />
        </mxCell>
        <mxCell id="cYHLTU1TbLBHb6qZ04rK-12" value="" style="edgeStyle=entityRelationEdgeStyle;startArrow=none;endArrow=none;segment=10;curved=1;rounded=0;exitX=0.75;exitY=1;exitDx=0;exitDy=0;" parent="cYHLTU1TbLBHb6qZ04rK-47" source="cYHLTU1TbLBHb6qZ04rK-1" target="cYHLTU1TbLBHb6qZ04rK-11" edge="1">
          <mxGeometry relative="1" as="geometry">
            <mxPoint x="13" y="230" as="sourcePoint" />
          </mxGeometry>
        </mxCell>
        <mxCell id="cYHLTU1TbLBHb6qZ04rK-14" value="nome" style="whiteSpace=wrap;html=1;rounded=1;arcSize=50;align=center;verticalAlign=middle;strokeWidth=1;autosize=1;spacing=4;treeFolding=1;treeMoving=1;newEdgeStyle={&quot;edgeStyle&quot;:&quot;entityRelationEdgeStyle&quot;,&quot;startArrow&quot;:&quot;none&quot;,&quot;endArrow&quot;:&quot;none&quot;,&quot;segment&quot;:10,&quot;curved&quot;:1};" parent="cYHLTU1TbLBHb6qZ04rK-47" vertex="1">
          <mxGeometry x="80" y="124" width="81" height="30" as="geometry" />
        </mxCell>
        <mxCell id="cYHLTU1TbLBHb6qZ04rK-15" value="" style="edgeStyle=entityRelationEdgeStyle;startArrow=none;endArrow=none;segment=10;curved=1;rounded=0;exitX=0.5;exitY=1;exitDx=0;exitDy=0;" parent="cYHLTU1TbLBHb6qZ04rK-47" source="cYHLTU1TbLBHb6qZ04rK-1" target="cYHLTU1TbLBHb6qZ04rK-14" edge="1">
          <mxGeometry relative="1" as="geometry">
            <mxPoint x="-10" y="70" as="sourcePoint" />
          </mxGeometry>
        </mxCell>
        <mxCell id="cYHLTU1TbLBHb6qZ04rK-16" value="função" style="whiteSpace=wrap;html=1;rounded=1;arcSize=50;align=center;verticalAlign=middle;strokeWidth=1;autosize=1;spacing=4;treeFolding=1;treeMoving=1;newEdgeStyle={&quot;edgeStyle&quot;:&quot;entityRelationEdgeStyle&quot;,&quot;startArrow&quot;:&quot;none&quot;,&quot;endArrow&quot;:&quot;none&quot;,&quot;segment&quot;:10,&quot;curved&quot;:1};" parent="cYHLTU1TbLBHb6qZ04rK-47" vertex="1">
          <mxGeometry x="81" y="184" width="80" height="30" as="geometry" />
        </mxCell>
        <mxCell id="cYHLTU1TbLBHb6qZ04rK-17" value="" style="edgeStyle=entityRelationEdgeStyle;startArrow=none;endArrow=none;segment=10;curved=1;rounded=0;exitX=0.114;exitY=1.044;exitDx=0;exitDy=0;exitPerimeter=0;" parent="cYHLTU1TbLBHb6qZ04rK-47" source="cYHLTU1TbLBHb6qZ04rK-1" target="cYHLTU1TbLBHb6qZ04rK-16" edge="1">
          <mxGeometry relative="1" as="geometry">
            <mxPoint x="150" y="220" as="sourcePoint" />
          </mxGeometry>
        </mxCell>
        <mxCell id="cYHLTU1TbLBHb6qZ04rK-18" value="setor" style="whiteSpace=wrap;html=1;rounded=1;arcSize=50;align=center;verticalAlign=middle;strokeWidth=1;autosize=1;spacing=4;treeFolding=1;treeMoving=1;newEdgeStyle={&quot;edgeStyle&quot;:&quot;entityRelationEdgeStyle&quot;,&quot;startArrow&quot;:&quot;none&quot;,&quot;endArrow&quot;:&quot;none&quot;,&quot;segment&quot;:10,&quot;curved&quot;:1};" parent="cYHLTU1TbLBHb6qZ04rK-47" vertex="1">
          <mxGeometry x="86" y="214" width="70" height="30" as="geometry" />
        </mxCell>
        <mxCell id="cYHLTU1TbLBHb6qZ04rK-19" value="" style="edgeStyle=entityRelationEdgeStyle;startArrow=none;endArrow=none;segment=10;curved=1;rounded=0;exitX=0.097;exitY=1.033;exitDx=0;exitDy=0;exitPerimeter=0;" parent="cYHLTU1TbLBHb6qZ04rK-47" source="cYHLTU1TbLBHb6qZ04rK-1" target="cYHLTU1TbLBHb6qZ04rK-18" edge="1">
          <mxGeometry relative="1" as="geometry">
            <mxPoint x="170" y="250" as="sourcePoint" />
          </mxGeometry>
        </mxCell>
        <mxCell id="cYHLTU1TbLBHb6qZ04rK-20" value="idade" style="whiteSpace=wrap;html=1;rounded=1;arcSize=50;align=center;verticalAlign=middle;strokeWidth=1;autosize=1;spacing=4;treeFolding=1;treeMoving=1;newEdgeStyle={&quot;edgeStyle&quot;:&quot;entityRelationEdgeStyle&quot;,&quot;startArrow&quot;:&quot;none&quot;,&quot;endArrow&quot;:&quot;none&quot;,&quot;segment&quot;:10,&quot;curved&quot;:1};" parent="cYHLTU1TbLBHb6qZ04rK-47" vertex="1">
          <mxGeometry x="80" y="154" width="81" height="30" as="geometry" />
        </mxCell>
        <mxCell id="cYHLTU1TbLBHb6qZ04rK-21" value="" style="edgeStyle=entityRelationEdgeStyle;startArrow=none;endArrow=none;segment=10;curved=1;rounded=0;exitX=0.25;exitY=1;exitDx=0;exitDy=0;" parent="cYHLTU1TbLBHb6qZ04rK-47" source="cYHLTU1TbLBHb6qZ04rK-1" target="cYHLTU1TbLBHb6qZ04rK-20" edge="1">
          <mxGeometry relative="1" as="geometry">
            <mxPoint x="50" y="160" as="sourcePoint" />
          </mxGeometry>
        </mxCell>
        <mxCell id="cYHLTU1TbLBHb6qZ04rK-23" value="" style="edgeStyle=entityRelationEdgeStyle;startArrow=none;endArrow=none;segment=10;curved=1;rounded=0;exitX=0.075;exitY=0.989;exitDx=0;exitDy=0;exitPerimeter=0;" parent="cYHLTU1TbLBHb6qZ04rK-47" source="cYHLTU1TbLBHb6qZ04rK-1" target="cYHLTU1TbLBHb6qZ04rK-22" edge="1">
          <mxGeometry relative="1" as="geometry">
            <mxPoint x="150" y="330" as="sourcePoint" />
          </mxGeometry>
        </mxCell>
        <mxCell id="cYHLTU1TbLBHb6qZ04rK-26" value="nome" style="whiteSpace=wrap;html=1;rounded=1;arcSize=50;align=center;verticalAlign=middle;strokeWidth=1;autosize=1;spacing=4;treeFolding=1;treeMoving=1;newEdgeStyle={&quot;edgeStyle&quot;:&quot;entityRelationEdgeStyle&quot;,&quot;startArrow&quot;:&quot;none&quot;,&quot;endArrow&quot;:&quot;none&quot;,&quot;segment&quot;:10,&quot;curved&quot;:1};" parent="cYHLTU1TbLBHb6qZ04rK-47" vertex="1">
          <mxGeometry x="471" y="98" width="70" height="30" as="geometry" />
        </mxCell>
        <mxCell id="cYHLTU1TbLBHb6qZ04rK-27" value="" style="edgeStyle=entityRelationEdgeStyle;startArrow=none;endArrow=none;segment=10;curved=1;rounded=0;exitX=0;exitY=1;exitDx=0;exitDy=0;" parent="cYHLTU1TbLBHb6qZ04rK-47" source="cYHLTU1TbLBHb6qZ04rK-2" target="cYHLTU1TbLBHb6qZ04rK-26" edge="1">
          <mxGeometry relative="1" as="geometry">
            <mxPoint x="430" y="140" as="sourcePoint" />
          </mxGeometry>
        </mxCell>
        <mxCell id="cYHLTU1TbLBHb6qZ04rK-48" value="" style="group;flipH=0;flipV=0;" parent="1" vertex="1" connectable="0">
          <mxGeometry x="120" y="525" width="560" height="120" as="geometry" />
        </mxCell>
        <mxCell id="cYHLTU1TbLBHb6qZ04rK-35" value="pessoas" style="swimlane;childLayout=stackLayout;horizontal=1;startSize=30;horizontalStack=0;rounded=1;fontSize=14;fontStyle=0;strokeWidth=2;resizeParent=0;resizeLast=1;shadow=0;dashed=0;align=center;labelBackgroundColor=default;" parent="cYHLTU1TbLBHb6qZ04rK-48" vertex="1">
          <mxGeometry width="140" height="120" as="geometry" />
        </mxCell>
        <mxCell id="cYHLTU1TbLBHb6qZ04rK-36" value="id&#xa;nome varchar(100)&#xa;idade INT&#xa;função varchar(100)&#xa;setor varchar(100)&#xa;salario INT" style="align=left;strokeColor=none;fillColor=none;spacingLeft=4;fontSize=11;verticalAlign=top;resizable=0;rotatable=0;part=1;" parent="cYHLTU1TbLBHb6qZ04rK-35" vertex="1">
          <mxGeometry y="30" width="140" height="90" as="geometry" />
        </mxCell>
        <mxCell id="cYHLTU1TbLBHb6qZ04rK-39" value="funções" style="swimlane;childLayout=stackLayout;horizontal=1;startSize=30;horizontalStack=0;rounded=1;fontSize=14;fontStyle=0;strokeWidth=2;resizeParent=0;resizeLast=1;shadow=0;dashed=0;align=center;" parent="cYHLTU1TbLBHb6qZ04rK-48" vertex="1">
          <mxGeometry x="420" width="140" height="120" as="geometry" />
        </mxCell>
        <mxCell id="cYHLTU1TbLBHb6qZ04rK-40" value="id&#xa;nome varchar(100)" style="align=left;strokeColor=none;fillColor=none;spacingLeft=4;fontSize=11;verticalAlign=top;resizable=0;rotatable=0;part=1;" parent="cYHLTU1TbLBHb6qZ04rK-39" vertex="1">
          <mxGeometry y="30" width="140" height="90" as="geometry" />
        </mxCell>
        <mxCell id="cYHLTU1TbLBHb6qZ04rK-41" value="pessoas_funções" style="swimlane;childLayout=stackLayout;horizontal=1;startSize=30;horizontalStack=0;rounded=1;fontSize=12;fontStyle=0;strokeWidth=2;resizeParent=0;resizeLast=1;shadow=0;dashed=0;align=center;" parent="cYHLTU1TbLBHb6qZ04rK-48" vertex="1">
          <mxGeometry x="220" y="5" width="120" height="110" as="geometry" />
        </mxCell>
        <mxCell id="cYHLTU1TbLBHb6qZ04rK-42" value="id_pessoas&#xa;id_funcoes" style="align=left;strokeColor=none;fillColor=none;spacingLeft=4;fontSize=11;verticalAlign=top;resizable=0;rotatable=0;part=1;" parent="cYHLTU1TbLBHb6qZ04rK-41" vertex="1">
          <mxGeometry y="30" width="120" height="80" as="geometry" />
        </mxCell>
        <mxCell id="cYHLTU1TbLBHb6qZ04rK-43" value="" style="endArrow=none;html=1;rounded=0;fontSize=12;exitX=1;exitY=0.5;exitDx=0;exitDy=0;entryX=0;entryY=0.5;entryDx=0;entryDy=0;" parent="cYHLTU1TbLBHb6qZ04rK-48" source="cYHLTU1TbLBHb6qZ04rK-36" target="cYHLTU1TbLBHb6qZ04rK-42" edge="1">
          <mxGeometry relative="1" as="geometry">
            <mxPoint x="160" y="20" as="sourcePoint" />
            <mxPoint x="320" y="20" as="targetPoint" />
          </mxGeometry>
        </mxCell>
        <mxCell id="cYHLTU1TbLBHb6qZ04rK-44" value="" style="endArrow=none;html=1;rounded=0;fontSize=12;exitX=1;exitY=0.5;exitDx=0;exitDy=0;entryX=0;entryY=0.5;entryDx=0;entryDy=0;" parent="cYHLTU1TbLBHb6qZ04rK-48" source="cYHLTU1TbLBHb6qZ04rK-42" target="cYHLTU1TbLBHb6qZ04rK-40" edge="1">
          <mxGeometry relative="1" as="geometry">
            <mxPoint x="160" y="20" as="sourcePoint" />
            <mxPoint x="320" y="20" as="targetPoint" />
          </mxGeometry>
        </mxCell>
        <mxCell id="cYHLTU1TbLBHb6qZ04rK-49" value="&lt;font style=&quot;font-size: 22px;&quot;&gt;&lt;b&gt;Modelo Conceitual&lt;/b&gt;&lt;/font&gt;" style="text;html=1;align=center;verticalAlign=middle;resizable=0;points=[];autosize=1;strokeColor=none;fillColor=none;fontSize=12;" parent="1" vertex="1">
          <mxGeometry x="304" y="60" width="220" height="40" as="geometry" />
        </mxCell>
        <mxCell id="cYHLTU1TbLBHb6qZ04rK-50" value="&lt;font style=&quot;font-size: 22px;&quot;&gt;&lt;b&gt;Modelo Lógico&lt;/b&gt;&lt;/font&gt;" style="text;html=1;align=center;verticalAlign=middle;resizable=0;points=[];autosize=1;strokeColor=none;fillColor=none;fontSize=12;" parent="1" vertex="1">
          <mxGeometry x="324" y="460" width="180" height="40" as="geometry" />
        </mxCell>
      </root>
    </mxGraphModel>
  </diagram>
</mxfile>
